<svg id="Camada_1" data-name="Camada 1" xmlns="http://www.w3.org/2000/svg" viewBox="0 0 1092 1080">
  <defs>
    <style>.cls-1{fill:#002d91;}</style>
  </defs>
  <circle class="cls-1" cx="877.77" cy="621.6" r="41.9"/>
  <path class="cls-1" d="M744,493.17,615,416.06,439.15,310.91l-17-10.16c-11.41-6.12-21.21-7.93-29.37-5.32q-13.5,4.31-27.17,23.35a122.22,122.22,0,0,0-11.45,19.55q-4.81,10.34-6.5,15.09l42.63,25.49,150.78,90.14,21.23,12.69,3.88,2.32,73.09,43.69L519.72,609.51l-20.81,14.23-3.81,2.61-54.53,37.29V561.77c-.64-12.42-4.36-21.15-11.22-26.09q-11.34-8.17-36.3-8.18a145.23,145.23,0,0,0-24.2,2q-12.11,2.06-17.39,3.41V743.39h0c.66,28.92,37.72,57,70.6,34.49L548.54,691.4,721,573.48l14.54-10C762.38,550.93,776.13,512.36,744,493.17Z"/>
  <path class="cls-1" d="M247,720.73a33.25,33.25,0,0,0-16.88-4.17h-48c-3,0-5,.71-6.14,2.12s-1.67,3.72-1.67,6.92a23.55,23.55,0,0,0,.42,4.45c.27,1.46.51,2.57.69,3.32h54q9.35,0,14.22,5.22a20.38,20.38,0,0,1,0,26.49q-4.87,5.29-14.22,5.29H182.16c-3,0-5,.71-6.14,2.12s-1.67,3.68-1.67,6.78a24.61,24.61,0,0,0,.42,4.52c.27,1.51.51,2.59.69,3.25h54.68A33.35,33.35,0,0,0,247,782.88a28.1,28.1,0,0,0,11.23-12.08q4-7.9,4-18.93t-4-19.07A28.07,28.07,0,0,0,247,720.73Z"/>
  <path class="cls-1" d="M196.6,702.84A20.89,20.89,0,0,0,207.76,700a21.63,21.63,0,0,0,7.53-8,65.6,65.6,0,0,0,5.17-11.94l2.92-9.74c1.31-4.33,2.93-7.56,4.89-9.68a9.61,9.61,0,0,1,7.39-3.17,10.72,10.72,0,0,1,8.58,4.09q3.42,4.1,3.42,12.43A33.23,33.23,0,0,1,245,687.79a38.89,38.89,0,0,1-5.72,9.4,12.16,12.16,0,0,0,3.07,4.16,7.37,7.37,0,0,0,5.16,1.91q3.76,0,6.9-3.81a28.65,28.65,0,0,0,5-10.46,55.8,55.8,0,0,0,1.89-15.25q0-16.11-7.12-24.79a22.7,22.7,0,0,0-18.41-8.69q-10.61,0-16.81,6.71t-9.69,18.72l-2.51,8.19q-1.68,6.07-4,8.9a7.65,7.65,0,0,1-6.14,2.82,8.85,8.85,0,0,1-7.6-4.09q-2.85-4.1-2.86-11.44a41.44,41.44,0,0,1,1.81-12.5,29.05,29.05,0,0,1,4.33-9,10.7,10.7,0,0,0-3.21-3.25,7.72,7.72,0,0,0-4.32-1.27c-2.42,0-4.56,1.17-6.42,3.53a26.2,26.2,0,0,0-4.39,9.67,55.81,55.81,0,0,0-1.61,14.06q0,14.55,6.49,23T196.6,702.84Z"/>
  <path class="cls-1" d="M192.42,621.55q9.9,5.72,24.41,5.72t24.41-5.58a37.27,37.27,0,0,0,15-15.18,49,49,0,0,0,0-43.51,37.27,37.27,0,0,0-15-15.18q-9.9-5.58-24.41-5.58t-24.41,5.65a37.74,37.74,0,0,0-15,15.25,48.12,48.12,0,0,0,0,43.08A38.11,38.11,0,0,0,192.42,621.55ZM194,566.39q8-6.92,22.88-6.92t22.94,6.85q7.89,6.85,7.89,18.43T239.77,603q-7.87,6.86-22.94,6.86T194,603Q186,596.2,186,584.75T194,566.39Z"/>
  <path class="cls-1" d="M247,373.42a33.35,33.35,0,0,0-16.88-4.16h-48c-3,0-5,.7-6.14,2.11s-1.67,3.73-1.67,6.93a23.63,23.63,0,0,0,.42,4.45c.27,1.46.51,2.56.69,3.31h54q9.35,0,14.22,5.23a20.37,20.37,0,0,1,0,26.48q-4.87,5.31-14.22,5.3H182.16c-3,0-5,.71-6.14,2.12s-1.67,3.67-1.67,6.78a24.69,24.69,0,0,0,.42,4.52c.27,1.51.51,2.59.69,3.25h54.68A33.25,33.25,0,0,0,247,435.57a28,28,0,0,0,11.23-12.08q4-7.9,4-18.92t-4-19.07A28.1,28.1,0,0,0,247,373.42Z"/>
  <path class="cls-1" d="M236.7,293q-10.6,0-16.81,6.71t-9.69,18.71l-2.52,8.2q-1.67,6.07-4,8.89a7.63,7.63,0,0,1-6.14,2.83,8.83,8.83,0,0,1-7.6-4.1Q187,330.11,187,322.76a41.44,41.44,0,0,1,1.81-12.5,29.06,29.06,0,0,1,4.33-9A10.81,10.81,0,0,0,190,298a7.8,7.8,0,0,0-4.32-1.27q-3.63,0-6.42,3.53a26.09,26.09,0,0,0-4.39,9.68,55.73,55.73,0,0,0-1.61,14q0,14.55,6.49,23t17.78,8.47a21,21,0,0,0,11.16-2.82,21.78,21.78,0,0,0,7.53-8,65.6,65.6,0,0,0,5.17-11.94l2.92-9.75c1.31-4.33,2.93-7.55,4.89-9.67a9.6,9.6,0,0,1,7.39-3.18,10.73,10.73,0,0,1,8.58,4.1q3.42,4.09,3.42,12.43a33.13,33.13,0,0,1-2.66,13.77,38.3,38.3,0,0,1-5.71,9.39,12.2,12.2,0,0,0,3.06,4.17,7.41,7.41,0,0,0,5.17,1.91c2.51,0,4.81-1.28,6.9-3.82a28.52,28.52,0,0,0,5-10.45,55.88,55.88,0,0,0,1.89-15.26q0-16.1-7.12-24.78A22.67,22.67,0,0,0,236.7,293Z"/>
  <path class="cls-1" d="M221,511.8c-2.25.12-3.82.79-4.72,2s-1.47,3.55-1.47,6.55a25.78,25.78,0,0,0,.37,4.37c.24,1.45.45,2.5.61,3.14h38c5.22-.11,10.28-6.81,6.22-12.74l-15.61-22.83-21.28-31.12-1.8-2.63c-2.27-4.84-9.23-7.32-12.7-1.53l-13.92,23.28-19,31.75-1.83,3.06c-1.1,2.06-1.43,3.83-1,5.31s1.92,3.25,4.22,4.9a21.8,21.8,0,0,0,3.52,2.07q1.88.87,2.73,1.17l4.6-7.7q8.13-13.61,16.27-27.21,1.14-1.92,2.29-3.83l.42-.7q3.94-6.6,7.88-13.19l14.76,21.58,2.57,3.75.47.69,6.73,9.84H221Z"/>
</svg>
