<svg id="Camada_1" data-name="Camada 1" xmlns="http://www.w3.org/2000/svg" viewBox="0 0 1092 1080">
  <defs>
    <style>.cls-1{fill:#002d91;}</style>
  </defs>
  <circle class="cls-1" cx="364.49" cy="576.07" r="18.55"/>
  <path class="cls-1" d="M305.26,519.19,248.14,485l-77.9-46.57L162.72,434c-5.05-2.72-9.39-3.52-13-2.36q-6,1.9-12,10.34a53.59,53.59,0,0,0-5.07,8.66q-2.13,4.58-2.88,6.68l18.88,11.29,66.78,39.92,9.4,5.62,1.72,1,32.36,19.34-53,36.22-9.21,6.3L195,578.17l-24.15,16.51V549.57c-.28-5.5-1.93-9.37-5-11.55q-5-3.63-16.07-3.62a64.54,64.54,0,0,0-10.72.9c-3.58.6-6.14,1.11-7.7,1.51V630h0c.29,12.81,16.7,25.24,31.26,15.28l56-38.3,76.37-52.22,6.44-4.41C313.39,544.77,319.48,527.69,305.26,519.19Z"/>
  <path class="cls-1" d="M442,607.58a20.87,20.87,0,0,0-8.71-4.48L429,601.84a14.42,14.42,0,0,1-5.57-2.66,5.1,5.1,0,0,1-1.71-4,5.74,5.74,0,0,1,2.38-4.86,10.46,10.46,0,0,1,6.43-1.78A19.36,19.36,0,0,1,437,589.6a16.08,16.08,0,0,1,4.72,2.45,3.59,3.59,0,0,0,1.26-1.16,3,3,0,0,0,.49-1.64,3.44,3.44,0,0,0-1.72-2.66,14,14,0,0,0-4.68-2.06,25.83,25.83,0,0,0-6.76-.81q-6.49,0-10.42,3a10.09,10.09,0,0,0-3.92,8.43,10.38,10.38,0,0,0,1.16,5,9.81,9.81,0,0,0,3.32,3.56,19.76,19.76,0,0,0,5.11,2.35l6.08,1.82a13,13,0,0,1,5.85,3,6.52,6.52,0,0,1,1.85,4.75,7,7,0,0,1-2.41,5.5q-2.42,2.13-7.11,2.13a15.71,15.71,0,0,1-7.2-1.5,19.43,19.43,0,0,1-4.55-3.05,4.27,4.27,0,0,0-1.71,1.16,2.83,2.83,0,0,0-.74,2,3.87,3.87,0,0,0,1.79,2.83,14.42,14.42,0,0,0,5,2.38,26.34,26.34,0,0,0,7.45,1q7.29,0,11.3-3.43a11.19,11.19,0,0,0,4-9A10.47,10.47,0,0,0,442,607.58Z"/>
  <path class="cls-1" d="M481,584.21a6.92,6.92,0,0,0-1.12.11,2.61,2.61,0,0,0-1.05.38q-1.81,3.49-3.71,7c-1.26,2.33-2.56,4.71-3.92,7.13s-2.84,5-4.47,7.7h-.28c-.56-.93-1.21-2-1.93-3.29s-1.5-2.61-2.34-4.06-1.68-2.9-2.52-4.37-1.64-2.87-2.41-4.2l-2.07-3.6a8.78,8.78,0,0,0-1.5-2.1,3.3,3.3,0,0,0-4.1,0,4,4,0,0,0-1,1.51c1,1.87,2.08,3.88,3.32,6s2.54,4.37,3.92,6.61,2.77,4.44,4.19,6.61q1.95,3,3.75,5.67v13.54a2.36,2.36,0,0,0,.77,2,3.58,3.58,0,0,0,2.31.63,6.28,6.28,0,0,0,1.5-.18,7.79,7.79,0,0,0,1.08-.31V611.39q3-4.46,5.53-8.5,2.66-4.26,4.62-7.66c1.3-2.26,2.32-4.15,3-5.67a9.69,9.69,0,0,0,1.09-3,2.3,2.3,0,0,0-.67-1.75A2.8,2.8,0,0,0,481,584.21Z"/>
  <path class="cls-1" d="M515.64,607.58a20.87,20.87,0,0,0-8.71-4.48l-4.26-1.26a14.42,14.42,0,0,1-5.57-2.66,5.1,5.1,0,0,1-1.71-4,5.74,5.74,0,0,1,2.38-4.86,10.46,10.46,0,0,1,6.43-1.78,19.36,19.36,0,0,1,6.48,1.05,16.08,16.08,0,0,1,4.72,2.45,3.59,3.59,0,0,0,1.26-1.16,3,3,0,0,0,.49-1.64,3.44,3.44,0,0,0-1.72-2.66,14,14,0,0,0-4.68-2.06,25.83,25.83,0,0,0-6.76-.81q-6.5,0-10.42,3a10.09,10.09,0,0,0-3.92,8.43,10.38,10.38,0,0,0,1.16,5,9.81,9.81,0,0,0,3.32,3.56,19.92,19.92,0,0,0,5.11,2.35l6.08,1.82a13,13,0,0,1,5.85,3,6.52,6.52,0,0,1,1.85,4.75,7,7,0,0,1-2.41,5.5q-2.42,2.13-7.1,2.13a15.73,15.73,0,0,1-7.21-1.5,19.43,19.43,0,0,1-4.55-3.05,4.27,4.27,0,0,0-1.71,1.16,2.83,2.83,0,0,0-.74,2,3.87,3.87,0,0,0,1.79,2.83,14.42,14.42,0,0,0,5,2.38,26.36,26.36,0,0,0,7.46,1q7.28,0,11.29-3.43a11.19,11.19,0,0,0,4-9A10.47,10.47,0,0,0,515.64,607.58Z"/>
  <path class="cls-1" d="M555.21,584.63h-30.3a2,2,0,0,0-1.6.66,2.79,2.79,0,0,0-.56,1.86,4.16,4.16,0,0,0,.21,1.33,6.17,6.17,0,0,0,.41,1h13.09v35.47a2.36,2.36,0,0,0,.77,2,3.58,3.58,0,0,0,2.31.63,6.28,6.28,0,0,0,1.5-.18,8.49,8.49,0,0,0,1.09-.31V589.46h11.54a1.91,1.91,0,0,0,1.61-.74,3,3,0,0,0,.56-1.85,4.16,4.16,0,0,0-.21-1.33A3.41,3.41,0,0,0,555.21,584.63Z"/>
  <path class="cls-1" d="M590.47,622.41h-21V607.72h16.93A2,2,0,0,0,588,607a2.84,2.84,0,0,0,.56-1.82,4.16,4.16,0,0,0-.21-1.33A3.41,3.41,0,0,0,588,603H569.48v-13.5h19.1a1.9,1.9,0,0,0,1.61-.74,3,3,0,0,0,.56-1.85,4.16,4.16,0,0,0-.21-1.33,3.41,3.41,0,0,0-.42-.91H566.89a2.89,2.89,0,0,0-3.08,3.08v36.38a3,3,0,0,0,.84,2.2,3,3,0,0,0,2.24.88h22a2,2,0,0,0,1.61-.7,2.84,2.84,0,0,0,.56-1.82,4.15,4.15,0,0,0-.21-1.37A3.52,3.52,0,0,0,590.47,622.41Z"/>
  <path class="cls-1" d="M643.57,614c-.19-2.75-.38-5.55-.59-8.39s-.44-5.56-.67-8.15-.47-4.84-.7-6.75a40.33,40.33,0,0,0-.63-4.06,2.53,2.53,0,0,0-1.22-1.72,5.4,5.4,0,0,0-2.56-.52,10.17,10.17,0,0,0-1.82.18,5,5,0,0,0-1.6.52q-2.1,4.83-5.15,11.68t-6.12,14.28h-.28c-1.07-2.48-2.19-5.11-3.36-7.91s-2.35-5.6-3.56-8.4-2.43-5.38-3.64-7.76a4.27,4.27,0,0,0-1.75-2,5.51,5.51,0,0,0-2.73-.63,6.35,6.35,0,0,0-2.38.42,5.51,5.51,0,0,0-1.61.91c-.23,2.61-.48,5.54-.73,8.78s-.5,6.53-.74,9.86-.43,6.48-.59,9.41-.31,5.43-.42,7.46-.18,3.32-.18,3.88a2.47,2.47,0,0,0,.63,1.78,2.88,2.88,0,0,0,2.17.67,7.33,7.33,0,0,0,1.44-.14c.44-.1.8-.19,1.08-.28q.35-5,.59-9.48c.17-3,.34-5.86.53-8.68s.36-5.75.52-8.78.32-6.29.46-9.79h.28q1.68,4.26,4.44,10.77t6.47,14.34a2.13,2.13,0,0,0,1.23,1.12,5.16,5.16,0,0,0,2,.35,5.38,5.38,0,0,0,1.79-.28,4.84,4.84,0,0,0,1.29-.63q4.13-9.58,6.79-15.63t4.19-9.9h.28c.14,2.33.31,5.34.49,9s.41,7.73.67,12.14.52,8.87.8,13.4a2.44,2.44,0,0,0,1,1.92,3.29,3.29,0,0,0,1.85.53,5.61,5.61,0,0,0,1.61-.21,4.91,4.91,0,0,0,1.33-.63c0-1.31-.15-3.07-.32-5.28S643.76,616.77,643.57,614Z"/>
  <path class="cls-1" d="M679.71,607.58A21,21,0,0,0,671,603.1l-4.27-1.26a14.29,14.29,0,0,1-5.56-2.66,5.08,5.08,0,0,1-1.72-4,5.74,5.74,0,0,1,2.38-4.86,10.49,10.49,0,0,1,6.44-1.78,19.3,19.3,0,0,1,6.47,1.05,16.08,16.08,0,0,1,4.72,2.45,3.59,3.59,0,0,0,1.26-1.16,2.87,2.87,0,0,0,.49-1.64,3.45,3.45,0,0,0-1.71-2.66,14.16,14.16,0,0,0-4.69-2.06,25.7,25.7,0,0,0-6.75-.81q-6.51,0-10.43,3a10.09,10.09,0,0,0-3.92,8.43,10.38,10.38,0,0,0,1.16,5,9.89,9.89,0,0,0,3.32,3.56,19.92,19.92,0,0,0,5.11,2.35l6.09,1.82a13,13,0,0,1,5.84,3,6.52,6.52,0,0,1,1.85,4.75,7,7,0,0,1-2.41,5.5q-2.42,2.13-7.1,2.13a15.73,15.73,0,0,1-7.21-1.5,19.65,19.65,0,0,1-4.55-3.05,4.27,4.27,0,0,0-1.71,1.16,2.83,2.83,0,0,0-.74,2,3.87,3.87,0,0,0,1.79,2.83,14.39,14.39,0,0,0,5,2.38,26.24,26.24,0,0,0,7.45,1q7.27,0,11.3-3.43a11.22,11.22,0,0,0,4-9A10.49,10.49,0,0,0,679.71,607.58Z"/>
  <path class="cls-1" d="M493.32,514.55V467.14c0-3.29-.79-5.56-2.35-6.79s-4.12-1.86-7.66-1.86a26.15,26.15,0,0,0-4.93.47c-1.61.31-2.84.56-3.67.77v59.76q0,10.35-5.79,15.75t-14.7,5.41a20.74,20.74,0,0,1-14.62-5.41q-5.87-5.4-5.86-15.75V467.14c0-3.29-.78-5.56-2.35-6.79s-4.06-1.86-7.5-1.86a27.4,27.4,0,0,0-5,.47c-1.66.31-2.86.56-3.59.77v60.53A36.89,36.89,0,0,0,419.9,539a31.1,31.1,0,0,0,13.37,12.43q8.76,4.39,21,4.4,12.36,0,21.11-4.4A31,31,0,0,0,488.7,539a36.8,36.8,0,0,0,4.62-18.69Z"/>
  <path class="cls-1" d="M554.17,535.87q-4.54,3.78-13.76,3.78a36.85,36.85,0,0,1-15.25-2.93,43.08,43.08,0,0,1-10.4-6.33,13.63,13.63,0,0,0-4.61,3.39A8.17,8.17,0,0,0,508,539.5c0,2.78,1.41,5.32,4.22,7.64a31.68,31.68,0,0,0,11.57,5.56,62.06,62.06,0,0,0,16.89,2.08q17.84,0,27.44-7.87a25.12,25.12,0,0,0,9.62-20.39q0-11.73-7.43-18.6t-20.71-10.74l-9.07-2.78q-6.74-1.84-9.86-4.47a8.48,8.48,0,0,1-3.12-6.8,9.79,9.79,0,0,1,4.53-8.41q4.53-3.17,12.67-3.17a45.6,45.6,0,0,1,13.84,2,32.35,32.35,0,0,1,9.93,4.78,11.69,11.69,0,0,0,3.59-3.55,8.55,8.55,0,0,0,1.41-4.78c0-2.68-1.31-5.05-3.91-7.11A29,29,0,0,0,558.94,458a62,62,0,0,0-15.56-1.78q-16.11,0-25.49,7.18t-9.38,19.69a23.16,23.16,0,0,0,3.13,12.36,24,24,0,0,0,8.83,8.33,72.54,72.54,0,0,0,13.22,5.72l10.78,3.24q7.2,2.16,10.72,5.41a10.66,10.66,0,0,1,3.51,8.18A11.87,11.87,0,0,1,554.17,535.87Z"/>
  <path class="cls-1" d="M663.16,461.9a53.23,53.23,0,0,0-47.69,0,42.12,42.12,0,0,0-17,16.6q-6.33,11-6.33,27t6.17,27a41.19,41.19,0,0,0,16.81,16.6,54.31,54.31,0,0,0,48.16,0,41.19,41.19,0,0,0,16.81-16.6q6.18-11,6.18-27t-6.25-27A41.74,41.74,0,0,0,663.16,461.9Zm-3.52,69q-7.59,8.72-20.41,8.72-12.66,0-20.25-8.72t-7.58-25.41q0-16.51,7.58-25.32t20.25-8.8q12.67,0,20.33,8.8t7.66,25.32Q667.22,522.2,659.64,530.93Z"/>
  <path class="cls-1" d="M875.46,460.35c-1.57-1.24-4.12-1.86-7.67-1.86a26,26,0,0,0-4.92.47c-1.62.31-2.84.56-3.68.77v59.76q0,10.35-5.78,15.75t-14.7,5.41a20.72,20.72,0,0,1-14.62-5.41q-5.87-5.4-5.86-15.75V467.14c0-3.29-.79-5.56-2.35-6.79s-4.07-1.86-7.51-1.86a27.38,27.38,0,0,0-5,.47c-1.67.31-2.87.56-3.6.77v60.53A36.8,36.8,0,0,0,804.39,539a31,31,0,0,0,13.37,12.43q8.75,4.39,21,4.4t21.11-4.4A31.1,31.1,0,0,0,873.19,539a36.89,36.89,0,0,0,4.61-18.69V467.14C877.8,463.85,877,461.58,875.46,460.35Z"/>
  <path class="cls-1" d="M954.84,508.91q-7.43-6.87-20.72-10.73l-9.07-2.78q-6.72-1.86-9.85-4.48a8.44,8.44,0,0,1-3.13-6.79,9.79,9.79,0,0,1,4.54-8.42q4.53-3.16,12.66-3.16a45.83,45.83,0,0,1,13.84,2,32.35,32.35,0,0,1,9.93,4.79,11.84,11.84,0,0,0,3.6-3.55,8.59,8.59,0,0,0,1.41-4.79c0-2.67-1.31-5-3.91-7.1A29.13,29.13,0,0,0,943.42,459a61.94,61.94,0,0,0-15.55-1.77q-16.11,0-25.49,7.18T893,484.13a23.21,23.21,0,0,0,3.12,12.35,24,24,0,0,0,8.84,8.34,72.43,72.43,0,0,0,13.21,5.71L929,513.78c4.79,1.44,8.37,3.24,10.71,5.4a10.64,10.64,0,0,1,3.52,8.19,11.85,11.85,0,0,1-4.53,9.49q-4.54,3.79-13.77,3.79a36.64,36.64,0,0,1-15.24-2.94,42.27,42.27,0,0,1-10.4-6.33,13.34,13.34,0,0,0-4.61,3.4,8.15,8.15,0,0,0-2.11,5.71c0,2.78,1.4,5.33,4.22,7.65a31.76,31.76,0,0,0,11.57,5.56,62.06,62.06,0,0,0,16.89,2.08q17.82,0,27.44-7.87a25.16,25.16,0,0,0,9.62-20.39Q962.27,515.79,954.84,508.91Z"/>
  <path class="cls-1" d="M780.63,496.39,754.86,481l-35.15-21-3.39-2c-2.28-1.22-4.24-1.58-5.87-1.06q-2.7.86-5.43,4.67a24.59,24.59,0,0,0-2.29,3.9c-.64,1.38-1.07,2.39-1.3,3l8.52,5.09,30.13,18,4.24,2.54.78.46,14.6,8.73-23.89,16.34-4.16,2.85-.76.52L720,530.46V510.1q-.18-3.72-2.24-5.21-2.26-1.63-7.25-1.64a29.28,29.28,0,0,0-4.84.41c-1.61.27-2.77.5-3.47.68v42.05h0c.13,5.78,7.54,11.39,14.11,6.89L741.57,536,776,512.44l2.9-2C784.3,507.94,787.05,500.23,780.63,496.39Z"/>
</svg>
