<svg id="Camada_1" data-name="Camada 1" xmlns="http://www.w3.org/2000/svg" viewBox="0 0 1092 1080">
  <defs>
    <style>.cls-1{fill:#002d91;}</style>
  </defs>
  <circle class="cls-1" cx="816.38" cy="448.74" r="33.32" transform="translate(-61.34 136.56) rotate(-9.22)"/>
  <path class="cls-1" d="M703.26,402.56c21.35-10,32.28-40.69,6.75-56L607.43,285.28,467.55,201.65l-13.5-8.07c-9.07-4.87-16.87-6.31-23.36-4.23q-10.72,3.42-21.61,18.57a96,96,0,0,0-9.10,15.55q-3.83,8.21-5.17,12l33.90,20.27,119.92,71.69,16.87,10.09,3.09,1.85,58.13,34.75-95.10,65-16.54,11.32-3,2.07-43.37,29.65v-81c-.51-9.88-3.46-16.82-8.92-20.75q-9-6.50-28.87-6.50a115.49,115.49,0,0,0-19.24,1.62q-9.63,1.64-13.84,2.71V545.6h0c.52,23,30,45.31,56.15,27.43l100.57-68.78,137.14-93.78Z"/>
  <path class="cls-1" d="M300.30,651.93c-1.94-1.54-5.11-2.30-9.51-2.30a32.71,32.71,0,0,0-6.12.57c-2,.39-3.53.71-4.57,1v74.23q0,12.86-7.18,19.57t-18.26,6.71q-10.87,0-18.16-6.71t-7.28-19.57v-65c0-4.09-1-6.91-2.92-8.44s-5.05-2.30-9.32-2.30a34.44,34.44,0,0,0-6.22.57c-2.07.39-3.56.71-4.46,1v75.19q0,13.24,5.73,23.21A38.52,38.52,0,0,0,228.63,765q10.88,5.47,26,5.47,15.35,0,26.22-5.47a38.60,38.60,0,0,0,16.61-15.44q5.72-10,5.73-23.21v-66C303.22,656.28,302.24,653.46,300.30,651.93Z"/>
  <path class="cls-1" d="M408.13,734.13q0-14.58-9.23-23.11t-25.73-13.33l-11.27-3.46q-8.34-2.29-12.23-5.56a10.51,10.51,0,0,1-3.89-8.44,12.16,12.16,0,0,1,5.64-10.45q5.63-3.93,15.73-3.93a56.76,56.76,0,0,1,17.19,2.49,39.79,39.79,0,0,1,12.33,5.95,14.72,14.72,0,0,0,4.47-4.42,10.70,10.70,0,0,0,1.75-5.94q0-5-4.86-8.83t-13.30-6a76.88,76.88,0,0,0-19.33-2.20q-20,0-31.66,8.92t-11.65,24.45A28.81,28.81,0,0,0,326,695.58a29.79,29.79,0,0,0,11,10.35,89.41,89.41,0,0,0,16.41,7.10l13.40,4q8.92,2.69,13.30,6.71a13.24,13.24,0,0,1,4.38,10.17,14.71,14.71,0,0,1-5.64,11.79q-5.64,4.71-17.09,4.70a45.65,45.65,0,0,1-18.94-3.64,52.90,52.90,0,0,1-12.91-7.86,16.64,16.64,0,0,0-5.73,4.22,10.11,10.11,0,0,0-2.62,7.09q0,5.18,5.24,9.50t14.37,6.90a77,77,0,0,0,21,2.59q22.14,0,34.09-9.78A31.22,31.22,0,0,0,408.13,734.13Z"/>
  <path class="cls-1" d="M454.55,762.23q13.20,7,29.91,7a62.87,62.87,0,0,0,29.91-7,51.22,51.22,0,0,0,20.88-20.62Q542.92,728,542.92,708t-7.77-33.56a51.79,51.79,0,0,0-21-20.62,66.17,66.17,0,0,0-59.24,0,52.42,52.42,0,0,0-21.08,20.62Q426,688.10,426,708t7.67,33.57A51.10,51.10,0,0,0,454.55,762.23Zm4.76-85.64q9.42-10.94,25.15-10.94t25.25,10.94q9.51,10.93,9.52,31.45,0,20.72-9.42,31.56t-25.35,10.83q-15.73,0-25.15-10.83T449.89,708Q449.89,687.52,459.31,676.59Z"/>
  <path class="cls-1" d="M777.87,651.93c-1.94-1.54-5.11-2.30-9.51-2.30a32.71,32.71,0,0,0-6.12.57c-2,.39-3.53.71-4.57,1v74.23q0,12.86-7.18,19.57t-18.26,6.71q-10.87,0-18.16-6.71t-7.28-19.57v-65c0-4.09-1-6.91-2.92-8.44s-5-2.30-9.32-2.30a34.33,34.33,0,0,0-6.21.57q-3.12.59-4.47,1v75.19q0,13.24,5.73,23.21A38.58,38.58,0,0,0,706.20,765q10.88,5.47,26,5.47,15.35,0,26.22-5.47a38.60,38.60,0,0,0,16.61-15.44q5.73-10,5.73-23.21v-66C780.79,656.28,779.82,653.46,777.87,651.93Z"/>
  <path class="cls-1" d="M876.48,712.25q-9.24-8.52-25.74-13.33l-11.26-3.45q-8.36-2.29-12.24-5.56a10.51,10.51,0,0,1-3.88-8.44A12.17,12.17,0,0,1,829,671q5.63-3.93,15.73-3.93a56.67,56.67,0,0,1,17.19,2.50,40,40,0,0,1,12.33,5.94,14.69,14.69,0,0,0,4.47-4.41,10.71,10.71,0,0,0,1.75-6q0-5-4.86-8.82t-13.30-6A76.80,76.80,0,0,0,843,648.09q-20,0-31.66,8.92t-11.65,24.46a28.77,28.77,0,0,0,3.88,15.34,29.81,29.81,0,0,0,11,10.36,90.41,90.41,0,0,0,16.41,7.10l13.40,4q8.94,2.69,13.31,6.71A13.23,13.23,0,0,1,862,735.18,14.71,14.71,0,0,1,856.37,747q-5.62,4.71-17.09,4.70A45.65,45.65,0,0,1,820.34,748a52.60,52.60,0,0,1-12.91-7.87,16.86,16.86,0,0,0-5.73,4.22,10.15,10.15,0,0,0-2.62,7.10q0,5.17,5.24,9.49t14.37,6.91a77,77,0,0,0,21,2.59q22.14,0,34.09-9.78a31.24,31.24,0,0,0,11.94-25.32Q885.70,720.79,876.48,712.25Z"/>
  <path class="cls-1" d="M660.09,696.70l-32-19.14-43.66-26.09L580.21,649c-2.83-1.52-5.27-2-7.29-1.33-2.24.72-4.48,2.65-6.75,5.80a30.60,30.60,0,0,0-2.84,4.85c-.79,1.71-1.33,3-1.61,3.75l10.58,6.32,37.42,22.38,5.27,3.15,1,.57,18.13,10.85-29.67,20.29-5.17,3.53-.94.65L584.77,739V713.73c-.15-3.08-1.08-5.25-2.78-6.48q-2.82-2-9-2a35.84,35.84,0,0,0-6,.50c-2,.34-3.44.62-4.31.85v52.23h0c.16,7.18,9.36,14.14,17.52,8.56l31.39-21.46,42.80-29.27,3.61-2.47C664.65,711,668.06,701.47,660.09,696.70Z"/>
  <path class="cls-1" d="M402.22,860.55l-5.30-1.56a18,18,0,0,1-6.91-3.31,6.36,6.36,0,0,1-2.13-4.95,7.15,7.15,0,0,1,3-6,13,13,0,0,1,8-2.22,24,24,0,0,1,8,1.31,20,20,0,0,1,5.87,3,4.29,4.29,0,0,0,1.56-1.43,3.58,3.58,0,0,0,.61-2q0-1.73-2.13-3.30a17.78,17.78,0,0,0-5.82-2.56,32,32,0,0,0-8.39-1q-8.07,0-12.94,3.78a12.50,12.50,0,0,0-4.87,10.47,13,13,0,0,0,1.43,6.22,12.46,12.46,0,0,0,4.13,4.43,24.90,24.90,0,0,0,6.34,2.91l7.57,2.26a16.11,16.11,0,0,1,7.25,3.73,8.10,8.10,0,0,1,2.31,5.91,8.71,8.71,0,0,1-3,6.83q-3,2.64-8.83,2.64A19.51,19.51,0,0,1,389,883.80a24.18,24.18,0,0,1-5.65-3.78,5.15,5.15,0,0,0-2.13,1.43,3.53,3.53,0,0,0-.91,2.48c0,1.16.73,2.33,2.21,3.52a17.92,17.92,0,0,0,6.17,2.95,32.74,32.74,0,0,0,9.25,1.18q9,0,14-4.26a13.93,13.93,0,0,0,5-11.13q0-6.42-4-10.08A26,26,0,0,0,402.22,860.55Z"/>
  <path class="cls-1" d="M461.49,837.09a8.17,8.17,0,0,0-1.39.13,3.18,3.18,0,0,0-1.30.48q-2.26,4.34-4.61,8.69t-4.87,8.86q-2.52,4.51-5.56,9.56h-.34q-1.05-1.74-2.39-4.09t-2.92-5q-1.56-2.68-3.12-5.43L432,845c-1-1.65-1.81-3.14-2.57-4.48a11,11,0,0,0-1.86-2.60,3.59,3.59,0,0,0-2.57-.87,3.50,3.50,0,0,0-2.52.91,4.93,4.93,0,0,0-1.30,1.87q1.81,3.48,4.13,7.51t4.86,8.22q2.56,4.17,5.22,8.21c1.61,2.46,3.15,4.79,4.65,7v16.81a3,3,0,0,0,1,2.44,4.47,4.47,0,0,0,2.87.78,7.78,7.78,0,0,0,1.87-.22,9.21,9.21,0,0,0,1.35-.39V870.85c2.48-3.70,4.78-7.23,6.86-10.56q3.30-5.29,5.74-9.52c1.62-2.80,2.88-5.15,3.78-7a12.17,12.17,0,0,0,1.34-3.70,2.85,2.85,0,0,0-.82-2.17A3.50,3.50,0,0,0,461.49,837.09Z"/>
  <path class="cls-1" d="M493.73,860.55l-5.30-1.56a18,18,0,0,1-6.91-3.31,6.33,6.33,0,0,1-2.13-4.95,7.14,7.14,0,0,1,2.95-6,13,13,0,0,1,8-2.22,24,24,0,0,1,8,1.31,20.16,20.16,0,0,1,5.87,3,4.45,4.45,0,0,0,1.56-1.43,3.66,3.66,0,0,0,.61-2q0-1.73-2.13-3.30a17.78,17.78,0,0,0-5.82-2.56,32.07,32.07,0,0,0-8.39-1q-8.08,0-12.95,3.78a12.53,12.53,0,0,0-4.87,10.47A12.84,12.84,0,0,0,473.70,857a12.29,12.29,0,0,0,4.13,4.43,24.74,24.74,0,0,0,6.34,2.91l7.56,2.26a16.21,16.21,0,0,1,7.26,3.73,8.13,8.13,0,0,1,2.30,5.91,8.71,8.71,0,0,1-3,6.83q-3,2.64-8.82,2.64a19.55,19.55,0,0,1-9-1.86,24.61,24.61,0,0,1-5.65-3.78,5.22,5.22,0,0,0-2.13,1.43,3.53,3.53,0,0,0-.91,2.48c0,1.16.74,2.33,2.22,3.52a17.83,17.83,0,0,0,6.17,2.95,32.69,32.69,0,0,0,9.25,1.18q9,0,14-4.26a13.92,13.92,0,0,0,5-11.13q0-6.42-3.95-10.08A26.05,26.05,0,0,0,493.73,860.55Z"/>
  <path class="cls-1" d="M553.69,837.61H516.06a2.52,2.52,0,0,0-2,.82,3.52,3.52,0,0,0-.69,2.31,5.28,5.28,0,0,0,.26,1.65,6.43,6.43,0,0,0,.52,1.22H530.40v44a3,3,0,0,0,1,2.44,4.45,4.45,0,0,0,2.87.78,7.70,7.70,0,0,0,1.86-.22,9.21,9.21,0,0,0,1.35-.39V843.61h14.34a2.37,2.37,0,0,0,2-.92,3.70,3.70,0,0,0,.69-2.30,5,5,0,0,0-.26-1.65A3.89,3.89,0,0,0,553.69,837.61Z"/>
  <path class="cls-1" d="M597.49,884.54H571.42V866.29h21a2.42,2.42,0,0,0,2-.87,3.54,3.54,0,0,0,.69-2.26,5,5,0,0,0-.26-1.65,3.89,3.89,0,0,0-.52-1.13H571.42V843.61h23.72a2.36,2.36,0,0,0,2-.92,3.70,3.70,0,0,0,.70-2.30,5.28,5.28,0,0,0-.26-1.65,4.50,4.50,0,0,0-.52-1.13H568.21a3.58,3.58,0,0,0-3.83,3.82v45.19a3.81,3.81,0,0,0,1,2.74,3.70,3.70,0,0,0,2.79,1.08h27.37a2.41,2.41,0,0,0,2-.86,3.54,3.54,0,0,0,.69-2.26,4.94,4.94,0,0,0-.26-1.70A4.18,4.18,0,0,0,597.49,884.54Z"/>
  <path class="cls-1" d="M663.45,874.11c-.24-3.42-.48-6.90-.74-10.43s-.54-6.91-.83-10.12-.58-6-.87-8.39-.55-4-.78-5a3.09,3.09,0,0,0-1.52-2.13,6.48,6.48,0,0,0-3.17-.65,13.29,13.29,0,0,0-2.26.21,6.60,6.60,0,0,0-2,.66q-2.61,6-6.39,14.51t-7.60,17.73h-.35q-2-4.61-4.17-9.82t-4.43-10.43q-2.26-5.22-4.52-9.65a5.29,5.29,0,0,0-2.17-2.43,6.85,6.85,0,0,0-3.39-.78,7.89,7.89,0,0,0-3,.52,7.21,7.21,0,0,0-2,1.13c-.30,3.25-.60,6.88-.92,10.91s-.62,8.11-.91,12.25-.53,8-.74,11.69-.38,6.73-.52,9.25-.22,4.13-.22,4.83a3.05,3.05,0,0,0,.79,2.21,3.59,3.59,0,0,0,2.69.83,8.32,8.32,0,0,0,1.78-.18,10.73,10.73,0,0,0,1.35-.35q.43-6.26.74-11.77t.65-10.78c.23-3.50.45-7.14.65-10.90s.39-7.82.56-12.17h.35q2.09,5.31,5.52,13.39t8,17.81a2.65,2.65,0,0,0,1.52,1.39,6.61,6.61,0,0,0,2.48.43,6.74,6.74,0,0,0,2.21-.34,6.35,6.35,0,0,0,1.61-.79q5.13-11.90,8.43-19.42T654.58,845h.35c.17,2.89.38,6.63.61,11.21s.51,9.60.83,15.07.65,11,1,16.65a3,3,0,0,0,1.17,2.39,4.13,4.13,0,0,0,2.30.65,7.13,7.13,0,0,0,2-.26,6.26,6.26,0,0,0,1.65-.79q-.09-2.43-.39-6.56C663.89,880.61,663.68,877.53,663.45,874.11Z"/>
  <path class="cls-1" d="M697.51,860.55l-5.30-1.56a18,18,0,0,1-6.91-3.31,6.33,6.33,0,0,1-2.13-4.95,7.15,7.15,0,0,1,3-6,13,13,0,0,1,8-2.22,24,24,0,0,1,8,1.31,20.16,20.16,0,0,1,5.87,3,4.45,4.45,0,0,0,1.56-1.43,3.58,3.58,0,0,0,.61-2q0-1.73-2.13-3.30a17.78,17.78,0,0,0-5.82-2.56,32,32,0,0,0-8.39-1q-8.08,0-13,3.78a12.52,12.52,0,0,0-4.86,10.47,13,13,0,0,0,1.43,6.22,12.37,12.37,0,0,0,4.13,4.43,24.74,24.74,0,0,0,6.34,2.91l7.56,2.26a16.16,16.16,0,0,1,7.26,3.73,8.13,8.13,0,0,1,2.30,5.91,8.71,8.71,0,0,1-3,6.83c-2,1.76-4.94,2.64-8.82,2.64a19.55,19.55,0,0,1-9-1.86,24.61,24.61,0,0,1-5.65-3.78,5.12,5.12,0,0,0-2.12,1.43,3.54,3.54,0,0,0-.92,2.48c0,1.16.74,2.33,2.22,3.52A17.92,17.92,0,0,0,684,890.40a32.69,32.69,0,0,0,9.25,1.18q9,0,14-4.26a13.93,13.93,0,0,0,5-11.13q0-6.42-4-10.08A26.05,26.05,0,0,0,697.51,860.55Z"/>
</svg>
